<svg width="25" height="25" viewBox="0 0 30 30" fill="none" xmlns="http://www.w3.org/2000/svg">
<path d="M27.6888 18.8266C27.2761 18.8266 26.9416 19.1628 26.9416 19.5776V26.245C26.9402 27.4887 25.9376 28.4966 24.7002 28.4978H3.73577C2.4983 28.4966 1.49577 27.4887 1.49431 26.245V6.67652C1.49577 5.43309 2.4983 4.4252 3.73577 4.42373H10.3697C10.7824 4.42373 11.1168 4.08758 11.1168 3.6728C11.1168 3.25833 10.7824 2.92188 10.3697 2.92188H3.73577C1.67351 2.92422 0.00233486 4.60384 0 6.67652V26.2453C0.00233486 28.318 1.67351 29.9976 3.73577 29.9999H24.7002C26.7624 29.9976 28.4336 28.318 28.4359 26.2453V19.5776C28.4359 19.1628 28.1015 18.8266 27.6888 18.8266Z" fill="#48B946"/>
<path d="M28.1399 0.989775C26.8269 -0.329925 24.6981 -0.329925 23.385 0.989775L10.0553 14.3868C9.96393 14.4786 9.89797 14.5925 9.86353 14.7174L8.11064 21.0777C8.03855 21.3385 8.11181 21.6178 8.3021 21.8093C8.49268 22.0006 8.77053 22.0742 9.02999 22.002L15.3583 20.24C15.4827 20.2054 15.5959 20.1391 15.6873 20.0473L29.0167 6.64991C30.3277 5.32933 30.3277 3.19152 29.0167 1.87094L28.1399 0.989775ZM11.6833 14.8749L22.5926 3.91019L26.1109 7.4463L15.2013 18.4111L11.6833 14.8749ZM10.9805 16.2923L13.7913 19.1177L9.90323 20.2004L10.9805 16.2923ZM27.9601 5.58805L27.1677 6.38444L23.6491 2.84803L24.4418 2.05164C25.1712 1.3186 26.3538 1.3186 27.0831 2.05164L27.9601 2.93281C28.6883 3.66672 28.6883 4.85442 27.9601 5.58805Z" fill="#48B946"/>
</svg>
